<?xml version="1.0" standalone="no"?>
<!DOCTYPE svg PUBLIC "-//W3C//DTD SVG 20010904//EN" "http://www.w3.org/TR/2001/REC-SVG-20010904/DTD/svg10.dtd">
<svg version="1.0" xmlns="http://www.w3.org/2000/svg" width="412.000000pt" height="412.000000pt"
    viewBox="0 0 412.000000 412.000000" preserveAspectRatio="xMidYMid meet">
    <metadata>
        Created by potrace 1.16, written by Peter Selinger 2001-2019
    </metadata>
    <g transform="translate(0.000000,412.000000) scale(0.100000,-0.100000)" fill="none" stroke="none">
        <path fill="#1a4d3e" d="M0 2060 l0 -2060 2060 0 2060 0 0 2060 0 2060 -2060 0 -2060 0 0
-2060z m3958 2015 c67 0 112 -4 113 -10 5 -82 -11 -3962 -17 -4011 l-5 -41
-1297 4 c-713 2 -1616 5 -2005 6 -616 2 -709 4 -718 17 -10 15 -5 2355 7 3499
l6 554 1902 -9 c1045 -5 1952 -9 2014 -9z" />
        <path fill="#1a4d3e" d="M493 3756 c5 -13 177 -243 310 -415 86 -112 139 -181 237 -311 52
-69 97 -127 100 -130 3 -3 25 -32 50 -65 25 -33 47 -62 50 -65 3 -3 38 -48 78
-100 96 -127 193 -252 206 -266 6 -7 31 -37 55 -68 46 -59 70 -69 86 -37 20
37 57 97 105 171 27 41 77 120 111 175 34 55 83 132 107 170 65 101 85 133
128 202 22 35 66 105 99 157 33 52 83 131 110 175 28 45 78 124 113 177 34 53
62 98 62 100 0 3 16 28 35 57 19 28 35 57 35 63 0 14 -621 24 -1469 24 -523 0
-612 -2 -608 -14z" />
        <path fill="#1a4d3e" d="M2937 3745 c-6 -15 -52 -87 -162 -255 -34 -52 -102 -158 -151 -235
-49 -77 -102 -161 -119 -187 -69 -108 -210 -331 -282 -448 -22 -36 -62 -100
-89 -142 -27 -43 -54 -86 -59 -95 -10 -18 -27 -45 -113 -178 -25 -38 -60 -92
-77 -120 -18 -27 -72 -111 -120 -185 -48 -74 -97 -151 -110 -170 -76 -120
-198 -306 -239 -365 -7 -11 -48 -74 -91 -140 -43 -66 -93 -142 -112 -170 -19
-27 -91 -135 -160 -240 -69 -104 -131 -199 -139 -210 -30 -42 -169 -250 -172
-257 -2 -5 114 -8 257 -8 l261 0 26 38 c14 20 82 123 150 227 67 105 132 202
144 217 11 14 20 30 20 36 0 5 9 17 20 27 11 10 20 22 20 27 0 6 9 22 20 36
11 15 226 335 477 712 395 592 533 806 870 1348 32 52 84 135 116 185 242 383
337 542 333 553 -8 21 -511 20 -519 -1z" />
        <path fill="#1a4d3e" d="M3721 3563 c-34 -55 -141 -224 -222 -351 -236 -369 -249 -391 -315
-500 -89 -149 -109 -181 -148 -244 -57 -91 -124 -195 -290 -447 -81 -122 -145
-225 -143 -227 2 -3 260 -6 573 -7 l569 -2 7 675 c3 371 8 782 10 913 2 130 1
237 -4 237 -4 0 -21 -21 -37 -47z" />
        <path fill="#1a4d3e" d="M356 3400 c-7 -19 -26 -1905 -26 -2572 0 -576 -7 -553 110 -375 40
61 286 432 547 823 260 391 473 715 473 719 0 6 -73 99 -119 150 -28 32 -241
296 -296 368 -27 35 -95 124 -150 197 -55 73 -140 185 -190 250 -49 64 -101
132 -115 150 -14 18 -65 86 -115 150 -49 65 -95 126 -102 136 -9 16 -12 17
-17 4z" />
        <path fill="#1a4d3e" d="M2389 1471 c-8 -2 -370 -536 -414 -610 -5 -10 -31 -48 -56 -87 -25
-38 -71 -107 -101 -154 -30 -47 -83 -127 -117 -179 -34 -52 -58 -97 -54 -101
4 -4 476 -9 1048 -11 l1040 -4 6 560 c4 403 3 563 -5 572 -9 10 -165 13 -674
15 -364 2 -667 1 -673 -1z" />
    </g>
</svg>